<svg width="24" height="17" viewBox="0 0 24 17" fill="none" xmlns="http://www.w3.org/2000/svg">
<path d="M23.498 2.65506C23.3624 2.14161 23.095 1.67299 22.7226 1.29613C22.3502 0.919257 21.8858 0.647369 21.376 0.507688C19.505 1.19844e-07 12 0 12 0C12 0 4.495 1.19844e-07 2.623 0.507688C2.11341 0.647615 1.64929 0.919602 1.27708 1.29645C0.904861 1.67329 0.637591 2.14178 0.502 2.65506C0 4.54908 0 8.5 0 8.5C0 8.5 0 12.4509 0.502 14.3449C0.637586 14.8584 0.904975 15.327 1.27739 15.7039C1.64981 16.0807 2.11418 16.3526 2.624 16.4923C4.495 17 12 17 12 17C12 17 19.505 17 21.377 16.4923C21.8869 16.3527 22.3513 16.0809 22.7237 15.704C23.0961 15.3271 23.3635 14.8584 23.499 14.3449C24 12.4509 24 8.5 24 8.5C24 8.5 24 4.54908 23.498 2.65506ZM9.545 12.087V4.91301L15.818 8.5L9.545 12.087Z" fill="#FF0000"/>
</svg>
