<svg width="24" height="24" viewBox="0 0 24 24" fill="none" xmlns="http://www.w3.org/2000/svg">
<path d="M5.34001 1.35453e-05C4.63831 -0.00156865 3.9432 0.135474 3.29461 0.403274C2.64602 0.671073 2.05671 1.06435 1.56053 1.56053C1.06435 2.05671 0.671073 2.64602 0.403274 3.29461C0.135474 3.9432 -0.00156865 4.63831 1.35453e-05 5.34001V18.66C-0.00156865 19.3617 0.135474 20.0568 0.403274 20.7054C0.671073 21.354 1.06435 21.9433 1.56053 22.4395C2.05671 22.9356 2.64602 23.3289 3.29461 23.5967C3.9432 23.8645 4.63831 24.0016 5.34001 24H18.66C19.3617 24.0016 20.0568 23.8645 20.7054 23.5967C21.354 23.3289 21.9433 22.9356 22.4395 22.4395C22.9356 21.9433 23.3289 21.354 23.5967 20.7054C23.8645 20.0568 24.0016 19.3617 24 18.66V5.34001C24.0016 4.63831 23.8645 3.9432 23.5967 3.29461C23.3289 2.64602 22.9356 2.05671 22.4395 1.56053C21.9433 1.06435 21.354 0.671073 20.7054 0.403274C20.0568 0.135474 19.3617 -0.00156865 18.66 1.35453e-05H5.34001ZM11.865 2.56801C14.201 2.56801 16.313 3.47001 17.921 5.15501C19.145 6.42701 19.833 7.774 20.185 9.547C20.305 10.137 20.305 11.747 20.192 12.411C19.8178 14.5215 18.6607 16.4129 16.952 17.707C16.344 18.167 14.856 18.968 14.616 18.968C14.528 18.968 14.52 18.877 14.56 18.508C14.632 17.916 14.704 17.793 15.04 17.652C15.576 17.428 16.488 16.778 17.048 16.217C18.0243 15.2412 18.7182 14.0193 19.056 12.681C19.264 11.857 19.24 10.025 19.008 9.177C18.28 6.48101 16.08 4.38501 13.384 3.82501C12.6 3.66501 11.176 3.66501 10.384 3.82501C7.656 4.38501 5.40001 6.58501 4.71201 9.353C4.52801 10.105 4.52801 11.937 4.71201 12.689C5.16801 14.521 6.35201 16.201 7.904 17.201C8.208 17.401 8.576 17.609 8.728 17.673C9.064 17.817 9.136 17.937 9.2 18.529C9.24 18.889 9.23 18.993 9.144 18.993C9.088 18.993 8.68 18.817 8.248 18.609L8.208 18.579C5.73601 17.363 4.15201 15.305 3.57601 12.567C3.43201 11.861 3.40801 10.175 3.54601 9.527C3.90601 7.787 4.59401 6.42701 5.73801 5.22301C7.386 3.48601 9.506 2.56701 11.866 2.56701L11.865 2.56801ZM11.999 5.37801C12.408 5.38201 12.802 5.41801 13.105 5.48401C15.889 6.10401 17.865 8.892 17.481 11.658C17.329 12.772 16.945 13.688 16.265 14.538C15.929 14.968 15.113 15.688 14.969 15.688C14.946 15.688 14.921 15.416 14.921 15.085V14.48L15.337 13.984C16.905 12.106 16.793 9.482 15.081 7.76C14.417 7.09001 13.649 6.69601 12.657 6.51401C12.017 6.39601 11.881 6.39601 11.209 6.50601C10.189 6.67301 9.399 7.06801 8.697 7.762C6.97701 9.466 6.86501 12.104 8.433 13.984L8.846 14.48V15.088C8.846 15.424 8.819 15.696 8.786 15.696C8.756 15.696 8.522 15.536 8.274 15.336L8.24 15.325C7.408 14.661 6.67201 13.483 6.36801 12.328C6.18401 11.63 6.18401 10.304 6.37601 9.608C6.88001 7.73 8.264 6.27301 10.184 5.58901C10.594 5.44401 11.318 5.36901 11.999 5.37801ZM11.869 8.368C12.179 8.368 12.489 8.428 12.713 8.546C13.201 8.799 13.601 9.291 13.753 9.805C14.217 11.383 12.545 12.765 11.033 12.059H11.018C10.306 11.728 9.922 11.103 9.914 10.289C9.914 9.556 10.322 8.918 11.026 8.544C11.25 8.427 11.559 8.368 11.869 8.368ZM11.858 13.096C12.846 13.092 13.564 13.445 13.828 14.066C14.026 14.53 13.952 15.998 13.61 18.368C13.378 20.024 13.25 20.442 12.93 20.724C12.49 21.114 11.866 21.222 11.274 21.012H11.271C10.555 20.755 10.401 20.407 10.107 18.368C9.766 15.998 9.691 14.53 9.889 14.066C10.151 13.45 10.863 13.1 11.859 13.096H11.858Z" fill="#9933CC"/>
</svg>
